<svg xmlns="http://www.w3.org/2000/svg" xmlns:xlink="http://www.w3.org/1999/xlink" width="24" height="24" version="1.1" viewBox="0 0 24 24"><title>GitHub</title><g fill="none" fill-rule="evenodd" stroke="none" stroke-width="1"><path fill="#181717" fill-rule="nonzero" d="M12,0 C5.37,0 0,5.37 0,12 C0,17.31 3.435,21.795 8.205,23.385 C8.805,23.49 9.03,23.13 9.03,22.815 C9.03,22.53 9.015,21.585 9.015,20.58 C6,21.135 5.22,19.845 4.98,19.17 C4.845,18.825 4.26,17.76 3.75,17.475 C3.33,17.25 2.73,16.695 3.72,16.68 C4.65,16.665 5.355,17.55 5.58,17.91 C6.66,19.725 8.385,19.215 9.075,18.9 C9.18,18.12 9.495,17.595 9.84,17.295 C7.17,16.995 4.38,16.005 4.38,11.4 C4.38,10.095 4.845,9.015 5.61,8.175 C5.49,7.875 5.07,6.63 5.73,4.98 C5.73,4.98 6.735,4.68 9.03,6.24 C10.05,5.97 11.145,5.835 12.24,5.835 C13.335,5.835 14.43,5.97 15.45,6.24 C17.73,4.68 18.72,4.98 18.72,4.98 C19.38,6.645 18.96,7.89 18.84,8.175C19.62,9.015 20.07,10.08 20.07,11.4C20.07,15.99 17.265,16.995 14.58,17.295C15.015,17.67 15.39,18.39 15.39,19.515C15.39,21.12 15.375,22.41 15.375,22.815C15.375,23.13 15.585,23.49 16.2,23.385C18.54,22.56 20.46,20.88 21.66,18.75C22.86,16.62 23.46,14.19 23.46,11.76C23.46,5.37 18.39,0 12,0Z"/></g></svg>