<svg xmlns="http://www.w3.org/2000/svg" xmlns:xlink="http://www.w3.org/1999/xlink" width="24" height="24" version="1.1" viewBox="0 0 24 24"><title>Google</title><g fill="none" fill-rule="evenodd" stroke="none" stroke-width="1"><path fill="#4285F4" d="M12.24,10.285 L12.24,14.4 L18.72,14.4 C18.48,15.69 17.76,17.76 15.84,19.08 L15.84,22.14 L19.68,22.14 C22.56,19.56 24,15.9 24,12.15 C24,11.4 23.94,10.71 23.82,10.05 L12.24,10.05 L12.24,10.285 Z"/><path fill="#FBBC05" d="M5.28,14.31 L1.2,17.19 L1.2,14.31 C0.42,12.57 0,10.59 0,8.55 C0,6.51 0.42,4.53 1.2,2.79 L1.2,0 L5.28,2.88 C4.44,4.8 3.96,6.96 3.96,9.15 C3.96,11.34 4.44,13.5 5.28,15.42 L5.28,14.31 Z"/><path fill="#34A853" d="M12.24,24 C15.6,24 18.36,22.92 20.16,21.09 L16.68,18.09 C15.6,18.78 14.16,19.29 12.24,19.29 C9,19.29 6.24,17.16 5.28,14.31 L1.2,17.19 C3.12,21.06 7.32,24 12.24,24 Z"/><path fill="#EA4335" d="M12.24,4.5 C14.64,4.5 16.08,5.34 16.92,6.12 L20.16,2.88 C18.36,1.08 15.6,0 12.24,0 C7.32,0 3.12,2.94 1.2,6.81 L5.28,9.69 C6.24,6.84 9,4.5 12.24,4.5 Z"/></g></svg>